PathFileType  4	(X/Y/Z) C:\Users\antoi\Documents\MyRepositories\mobilecap\ResultsAnalysis
DataRate	CameraRate	NumFrames	NumMarkers	Units	OrigDataRate	OrigDataStartFrame	OrigNumFrames
100.0	100.0	4	51	mm	100.0	502	1336
Frame#	Time	r_knee			r_shank_antsup			r_ankle			r_calc			r_5meta			r_toe			L_knee			L_shank_antsup			L_ankle			L_calc			L_5meta			L_toe			r_sh2			r_sh3			r_sh4			L_sh2			L_sh3			r_thigh1			r_thigh2			r_thigh3			r_thigh4			r_thigh5			L_thigh1			L_thigh2			L_thigh3			L_thigh4			r.ASIS			r.PSIS			L.ASIS			L.PSIS			C7			R_Shoulder			L_Shoulder			R_Sternum			L_Sternum			R_humerus			R_elbow_med			R_elbow_lat			R_forearm			R_wrist_radius			R_wrist_ulna			L_humerus			L_elbow_med			L_elbow_lat			L_forearm			L_wrist_radius			L_wrist_ulna			R_HJC			L_HJC			R_HJC_reg			L_HJC_reg			
		X1	Y1	Z1	X2	Y2	Z2	X3	Y3	Z3	X4	Y4	Z4	X5	Y5	Z5	X6	Y6	Z6	X7	Y7	Z7	X8	Y8	Z8	X9	Y9	Z9	X10	Y10	Z10	X11	Y11	Z11	X12	Y12	Z12	X13	Y13	Z13	X14	Y14	Z14	X15	Y15	Z15	X16	Y16	Z16	X17	Y17	Z17	X18	Y18	Z18	X19	Y19	Z19	X20	Y20	Z20	X21	Y21	Z21	X22	Y22	Z22	X23	Y23	Z23	X24	Y24	Z24	X25	Y25	Z25	X26	Y26	Z26	X27	Y27	Z27	X28	Y28	Z28	X29	Y29	Z29	X30	Y30	Z30	X31	Y31	Z31	X32	Y32	Z32	X33	Y33	Z33	X34	Y34	Z34	X35	Y35	Z35	X36	Y36	Z36	X37	Y37	Z37	X38	Y38	Z38	X39	Y39	Z39	X40	Y40	Z40	X41	Y41	Z41	X42	Y42	Z42	X43	Y43	Z43	X44	Y44	Z44	X45	Y45	Z45	X46	Y46	Z46	X47	Y47	Z47	X48	Y48	Z48	X49	Y49	Z49	X50	Y50	Z50	X51	Y51	Z51	

502	5.01000000	-178.21939	481.80064	-442.67297	-156.72046	412.03846	-425.60104	-332.04986	104.00863	-443.26649	-393.60734	50.32950	-488.78956	-202.30668	45.65431	-385.14758	-161.09914	69.04424	-441.43760	-166.74521	472.97684	-774.92017	-158.48503	372.71951	-782.65028	-343.00298	99.74584	-764.36531	-413.96922	49.86183	-725.05627	-200.07892	37.87021	-813.07340	-171.28943	62.03905	-749.97129	-197.28474	306.30176	-422.18971	-226.72779	439.11688	-416.52476	-274.60196	333.33464	-413.94489	-236.77310	414.82136	-797.39319	-284.04236	304.02527	-796.36372	-464.21457	578.90254	-425.52701	-358.53239	584.01560	-436.37579	-328.41067	526.00014	-407.19532	-459.13047	464.83206	-425.10065	-341.87812	473.26457	-422.64500	-452.41518	599.15511	-782.87839	-314.86368	575.28950	-783.57686	-460.23434	461.21281	-800.60913	-323.97336	462.76703	-801.64913	-503.40986	604.85592	-478.98289	-690.21953	631.60856	-568.43424	-498.15572	601.09311	-748.05082	-689.10829	627.14522	-669.91575	-463.39313	1104.79481	-629.55642	-393.26206	1058.32505	-456.35549	-377.61610	1054.75906	-785.39578	-335.49196	996.46811	-589.35108	-334.06896	993.61377	-642.42220	-477.06674	848.95850	-299.16559	-557.13186	753.89806	-329.48242	-515.60163	778.12754	-252.41695	-400.40044	667.38250	-280.99132	-323.82666	586.75506	-321.76352	-350.99531	571.10072	-290.44094	-470.28355	831.61984	-908.86548	-566.31612	753.76120	-871.28463	-521.66525	762.48629	-940.05029	-411.69906	624.23885	-916.34070	-341.88215	564.63395	-885.30017	-368.41561	537.91076	-898.79597	-579.71904	520.77824	-491.64308	-572.28769	517.14656	-721.86323	-571.56361	525.77183	-514.68047	-569.62030	517.96680	-692.13375	
503	5.02000000	-179.21082	482.46131	-442.19660	-157.59815	412.77039	-425.16037	-332.12646	104.05183	-443.09544	-393.63576	50.41076	-488.66177	-202.28002	45.62791	-385.09206	-161.13518	69.06622	-441.40313	-167.35287	473.19171	-774.66095	-158.78614	373.02161	-782.52647	-343.10211	99.96025	-764.74387	-414.35723	50.16723	-725.68539	-200.10489	38.00279	-812.81881	-171.59495	62.04305	-749.94871	-197.73686	306.58670	-421.95504	-228.33291	439.09070	-417.47701	-275.36659	333.60171	-413.82385	-237.08694	415.00703	-797.02585	-284.29294	304.20455	-796.30197	-465.58503	578.10553	-426.06864	-360.29581	583.42395	-436.62607	-329.62651	526.23423	-406.61344	-459.74550	463.50013	-424.96234	-342.71990	473.17211	-422.08029	-454.09401	597.63094	-784.79832	-315.89368	574.79165	-783.55314	-460.36338	459.56876	-800.84594	-324.38076	462.33699	-800.26719	-506.28136	603.10089	-479.52500	-693.47267	627.42842	-569.19004	-500.83000	598.83922	-748.07110	-692.14680	622.85818	-670.52355	-470.16366	1102.65000	-629.75825	-400.30603	1056.66501	-456.06799	-384.37831	1052.41897	-785.70983	-341.56369	994.66857	-589.24980	-340.02119	991.91721	-642.49147	-484.28040	846.54266	-299.91514	-563.55545	750.86080	-331.30796	-522.62982	775.22908	-253.87273	-406.22428	665.73535	-282.41773	-329.02525	585.96269	-324.05218	-355.88094	570.12863	-292.05305	-476.73461	829.11752	-908.62531	-570.44172	749.91829	-869.87560	-528.03670	759.74958	-939.56058	-417.31229	622.04304	-916.26615	-346.89905	562.91787	-885.66198	-373.50693	535.90412	-898.59372	-581.71330	518.10490	-491.90874	-573.94420	514.08350	-722.11021	-573.51037	523.15474	-515.14837	-571.19371	515.16753	-692.25306	
504	5.03000000	-180.20202	483.08455	-441.84538	-158.49418	413.23531	-424.78195	-332.22805	104.03869	-442.87626	-393.63315	50.47728	-488.46164	-202.29409	45.60094	-385.00309	-161.18302	69.11687	-441.37998	-168.17406	473.40034	-774.39059	-159.24977	373.38797	-782.53119	-343.21631	100.05935	-764.96951	-414.46121	50.44569	-725.67948	-200.10689	38.06339	-812.53831	-171.67970	62.19184	-749.81402	-198.34610	307.16751	-421.16688	-230.01820	439.00484	-418.24756	-276.27185	333.82111	-413.66560	-237.52138	415.24099	-797.02330	-284.61468	304.34458	-796.33977	-466.60854	578.54438	-426.69780	-361.78719	583.21186	-436.71252	-330.94757	526.50131	-406.44606	-460.45954	463.01502	-424.65441	-343.41055	473.75468	-420.97903	-455.76813	596.07509	-786.68972	-316.96764	574.53069	-783.55803	-460.69912	458.49217	-801.10703	-325.01583	462.28491	-799.00773	-509.06103	602.40347	-479.84576	-696.61734	624.10493	-570.00569	-504.09009	596.79611	-747.87444	-695.08357	619.30888	-671.20869	-476.51961	1101.20571	-629.91008	-407.36528	1055.37975	-455.79749	-391.57968	1049.89562	-786.21090	-347.41108	993.27482	-589.19270	-345.80050	990.69685	-642.56769	-491.72343	844.41995	-300.84753	-570.33865	748.49777	-333.24592	-529.84546	772.68213	-255.46516	-412.38822	664.32763	-283.98909	-334.37532	585.40315	-326.14375	-361.19014	569.30239	-293.75232	-483.43098	826.85296	-908.31796	-575.38341	746.64364	-868.38766	-534.60783	757.20850	-938.84230	-423.11249	620.06432	-916.04740	-352.03200	561.51032	-885.99705	-378.69011	534.25553	-898.55643	-583.83253	516.52399	-491.81846	-575.85711	511.39974	-721.99008	-575.59270	521.26186	-515.29009	-572.91405	512.88585	-692.04056	
505	5.04000000	-181.20693	483.67359	-441.33766	-159.36312	413.76904	-424.11828	-332.43869	103.99427	-442.65040	-393.68846	50.51777	-488.24023	-202.35588	45.54740	-384.85356	-161.25669	69.19075	-441.28175	-169.11901	473.75656	-774.38097	-159.95502	373.86926	-782.81542	-343.36751	100.00117	-764.96999	-414.50769	50.38902	-725.56854	-200.12340	38.07041	-812.36310	-171.73611	62.30804	-749.71579	-199.24328	307.97157	-420.00957	-231.08081	439.28613	-417.60343	-277.16443	334.02873	-413.17631	-238.18363	415.47174	-797.25350	-285.07715	304.54360	-796.54979	-467.74781	579.31022	-427.24948	-363.19491	583.42000	-436.59548	-332.29783	526.81392	-406.47750	-461.41688	463.34257	-424.03980	-344.21776	474.42320	-419.99637	-457.43272	594.49138	-788.45324	-318.14241	574.60806	-783.72949	-461.35921	457.80163	-801.36450	-325.97639	462.34774	-798.06604	-511.64696	602.67776	-479.99104	-699.63630	621.65449	-570.90520	-506.50318	596.50522	-747.85395	-697.90332	616.59103	-671.92643	-482.25275	1100.52517	-630.15548	-414.45053	1054.49652	-455.72306	-398.61374	1048.02908	-786.90724	-353.07718	992.53493	-589.12754	-351.38540	990.07006	-642.65976	-499.41458	842.63805	-302.02442	-577.15455	746.39833	-335.27862	-537.31471	770.55990	-257.09167	-418.80322	663.35109	-285.49823	-339.71040	585.28532	-327.37460	-366.63232	569.03940	-295.09883	-490.26694	824.95310	-907.99838	-581.53244	744.35085	-867.07047	-541.34178	754.98288	-937.84473	-429.04689	618.51459	-915.82230	-357.30993	560.39131	-886.27505	-384.01759	533.04532	-898.67430	-585.52331	515.80392	-491.96894	-577.02528	510.18821	-722.11083	-577.22402	520.68844	-515.26737	-574.19358	511.83524	-691.88903	
